<mxfile host="app.diagrams.net" agent="Mozilla/5.0 (Windows NT 10.0; Win64; x64) AppleWebKit/537.36 (KHTML, like Gecko) Chrome/132.0.0.0 Safari/537.36 Edg/132.0.0.0" version="26.0.7">
  <diagram name="Page-1" id="e7e014a7-5840-1c2e-5031-d8a46d1fe8dd">
    <mxGraphModel dx="1199" dy="651" grid="1" gridSize="10" guides="1" tooltips="1" connect="1" arrows="1" fold="1" page="1" pageScale="1" pageWidth="1169" pageHeight="826" background="none" math="0" shadow="0">
      <root>
        <mxCell id="0" />
        <mxCell id="1" parent="0" />
        <mxCell id="2" value="SciTaipeiToolClient (Frontend)" style="swimlane;whiteSpace=wrap" parent="1" vertex="1">
          <mxGeometry x="10" y="190" width="410" height="570" as="geometry" />
        </mxCell>
        <mxCell id="5" value="" style="ellipse;shape=startState;fillColor=#000000;strokeColor=#ff0000;" parent="2" vertex="1">
          <mxGeometry x="176" y="40" width="30" height="30" as="geometry" />
        </mxCell>
        <mxCell id="6" value="" style="edgeStyle=elbowEdgeStyle;elbow=horizontal;verticalAlign=bottom;endArrow=open;endSize=8;strokeColor=#FF0000;endFill=1;rounded=0" parent="2" source="5" target="7" edge="1">
          <mxGeometry x="100" y="40" as="geometry">
            <mxPoint x="191" y="110" as="targetPoint" />
          </mxGeometry>
        </mxCell>
        <mxCell id="7" value="Register" style="" parent="2" vertex="1">
          <mxGeometry x="136" y="110" width="110" height="50" as="geometry" />
        </mxCell>
        <mxCell id="8" value="Login" style="" parent="2" vertex="1">
          <mxGeometry x="136" y="220" width="110" height="50" as="geometry" />
        </mxCell>
        <mxCell id="9" value="" style="endArrow=open;strokeColor=#FF0000;endFill=1;rounded=0" parent="2" source="7" target="8" edge="1">
          <mxGeometry relative="1" as="geometry" />
        </mxCell>
        <mxCell id="10" value="Script List" style="" parent="2" vertex="1">
          <mxGeometry x="136" y="325" width="110" height="50" as="geometry" />
        </mxCell>
        <mxCell id="11" value="" style="endArrow=open;strokeColor=#FF0000;endFill=1;rounded=0" parent="2" source="8" target="10" edge="1">
          <mxGeometry relative="1" as="geometry" />
        </mxCell>
        <mxCell id="12" value="" style="edgeStyle=elbowEdgeStyle;elbow=horizontal;strokeColor=#FF0000;endArrow=open;endFill=1;rounded=0" parent="2" source="10" target="7" edge="1">
          <mxGeometry width="100" height="100" relative="1" as="geometry">
            <mxPoint x="173" y="290" as="sourcePoint" />
            <mxPoint x="273" y="190" as="targetPoint" />
            <Array as="points">
              <mxPoint x="60" y="242" />
            </Array>
          </mxGeometry>
        </mxCell>
        <mxCell id="5kKA1LQGXs_GHi_AupSK-41" value="Reset Password" style="" vertex="1" parent="2">
          <mxGeometry x="286" y="220" width="110" height="50" as="geometry" />
        </mxCell>
        <mxCell id="5kKA1LQGXs_GHi_AupSK-42" value="" style="endArrow=open;strokeColor=#FF0000;endFill=1;rounded=0;exitX=1;exitY=0.5;exitDx=0;exitDy=0;entryX=0;entryY=0.5;entryDx=0;entryDy=0;" edge="1" parent="2" source="8" target="5kKA1LQGXs_GHi_AupSK-41">
          <mxGeometry relative="1" as="geometry">
            <mxPoint x="276" y="192" as="sourcePoint" />
            <mxPoint x="371" y="204" as="targetPoint" />
          </mxGeometry>
        </mxCell>
        <mxCell id="5kKA1LQGXs_GHi_AupSK-54" value="" style="endArrow=open;strokeColor=#FF0000;endFill=1;rounded=0;edgeStyle=orthogonalEdgeStyle;exitX=0.5;exitY=0;exitDx=0;exitDy=0;entryX=0.75;entryY=0;entryDx=0;entryDy=0;" edge="1" parent="2" source="5kKA1LQGXs_GHi_AupSK-41" target="8">
          <mxGeometry relative="1" as="geometry">
            <mxPoint x="356" y="182" as="sourcePoint" />
            <mxPoint x="196" y="192" as="targetPoint" />
            <Array as="points">
              <mxPoint x="341" y="192" />
              <mxPoint x="219" y="192" />
            </Array>
          </mxGeometry>
        </mxCell>
        <mxCell id="5kKA1LQGXs_GHi_AupSK-57" value="Login" style="" vertex="1" parent="2">
          <mxGeometry x="10" y="220" width="110" height="50" as="geometry" />
        </mxCell>
        <mxCell id="3" value="SciTaipeiTool (Web Backend, Service)" style="swimlane;whiteSpace=wrap" parent="1" vertex="1">
          <mxGeometry x="420" y="190" width="360" height="570" as="geometry" />
        </mxCell>
        <mxCell id="13" value="" style="ellipse;shape=startState;fillColor=#000000;strokeColor=#ff0000;" parent="3" vertex="1">
          <mxGeometry x="160.5" y="32" width="30" height="30" as="geometry" />
        </mxCell>
        <mxCell id="14" value="" style="edgeStyle=elbowEdgeStyle;elbow=horizontal;verticalAlign=bottom;endArrow=open;endSize=8;strokeColor=#FF0000;endFill=1;rounded=0" parent="3" source="13" target="15" edge="1">
          <mxGeometry x="40" y="20" as="geometry">
            <mxPoint x="155.5" y="82" as="targetPoint" />
          </mxGeometry>
        </mxCell>
        <mxCell id="15" value="Start Service" style="" parent="3" vertex="1">
          <mxGeometry x="120.5" y="102" width="110" height="50" as="geometry" />
        </mxCell>
        <mxCell id="16" value="Web API" style="" parent="3" vertex="1">
          <mxGeometry x="55" y="220" width="110" height="70" as="geometry" />
        </mxCell>
        <mxCell id="17" value="" style="endArrow=open;strokeColor=#FF0000;endFill=1;rounded=0;edgeStyle=orthogonalEdgeStyle;" parent="3" source="15" target="16" edge="1">
          <mxGeometry relative="1" as="geometry" />
        </mxCell>
        <mxCell id="18" value="Login Handler" style="" parent="3" vertex="1">
          <mxGeometry x="55" y="392" width="110" height="50" as="geometry" />
        </mxCell>
        <mxCell id="19" value="" style="endArrow=open;strokeColor=#3333FF;endFill=1;rounded=0;startArrow=open;startFill=0;" parent="3" source="16" target="18" edge="1">
          <mxGeometry relative="1" as="geometry" />
        </mxCell>
        <mxCell id="5kKA1LQGXs_GHi_AupSK-58" value="gRPC Client" style="" vertex="1" parent="3">
          <mxGeometry x="190.5" y="220" width="110" height="50" as="geometry" />
        </mxCell>
        <mxCell id="5kKA1LQGXs_GHi_AupSK-59" value="" style="endArrow=open;strokeColor=#FF0000;endFill=1;rounded=0;entryX=0.5;entryY=0;entryDx=0;entryDy=0;exitX=0.5;exitY=1;exitDx=0;exitDy=0;edgeStyle=orthogonalEdgeStyle;" edge="1" parent="3" source="15" target="5kKA1LQGXs_GHi_AupSK-58">
          <mxGeometry relative="1" as="geometry">
            <mxPoint x="186" y="162" as="sourcePoint" />
            <mxPoint x="120" y="230" as="targetPoint" />
          </mxGeometry>
        </mxCell>
        <mxCell id="5kKA1LQGXs_GHi_AupSK-60" value="Task Handler" style="" vertex="1" parent="3">
          <mxGeometry x="190.5" y="392" width="110" height="50" as="geometry" />
        </mxCell>
        <mxCell id="5kKA1LQGXs_GHi_AupSK-63" value="" style="endArrow=open;strokeColor=#006600;endFill=1;rounded=0;entryX=0.5;entryY=0;entryDx=0;entryDy=0;exitX=0.75;exitY=1;exitDx=0;exitDy=0;edgeStyle=orthogonalEdgeStyle;startArrow=open;startFill=0;" edge="1" parent="3" source="16" target="5kKA1LQGXs_GHi_AupSK-60">
          <mxGeometry relative="1" as="geometry">
            <mxPoint x="120" y="280" as="sourcePoint" />
            <mxPoint x="120" y="402" as="targetPoint" />
          </mxGeometry>
        </mxCell>
        <mxCell id="5kKA1LQGXs_GHi_AupSK-64" value="" style="endArrow=open;strokeColor=#006600;endFill=1;rounded=0;startArrow=open;startFill=0;entryX=0.75;entryY=0;entryDx=0;entryDy=0;exitX=0.75;exitY=1;exitDx=0;exitDy=0;" edge="1" parent="3" source="5kKA1LQGXs_GHi_AupSK-58" target="5kKA1LQGXs_GHi_AupSK-60">
          <mxGeometry relative="1" as="geometry">
            <mxPoint x="280.5" y="292" as="sourcePoint" />
            <mxPoint x="280.5" y="392" as="targetPoint" />
          </mxGeometry>
        </mxCell>
        <mxCell id="5kKA1LQGXs_GHi_AupSK-71" value="&lt;font style=&quot;font-size: 8px;&quot;&gt;Request&lt;/font&gt;" style="endArrow=classic;html=1;rounded=0;entryX=0;entryY=0.25;entryDx=0;entryDy=0;strokeColor=light-dark(#ff0000, #ededed);labelPosition=center;verticalLabelPosition=top;align=center;verticalAlign=bottom;" edge="1" parent="3">
          <mxGeometry width="50" height="50" relative="1" as="geometry">
            <mxPoint y="228" as="sourcePoint" />
            <mxPoint x="55" y="228.5" as="targetPoint" />
          </mxGeometry>
        </mxCell>
        <mxCell id="5kKA1LQGXs_GHi_AupSK-72" value="" style="endArrow=none;html=1;rounded=0;entryX=0;entryY=0.5;entryDx=0;entryDy=0;strokeColor=light-dark(#ff0000, #ededed);startArrow=classic;startFill=0;" edge="1" parent="3">
          <mxGeometry width="50" height="50" relative="1" as="geometry">
            <mxPoint y="274" as="sourcePoint" />
            <mxPoint x="55" y="274" as="targetPoint" />
          </mxGeometry>
        </mxCell>
        <mxCell id="5kKA1LQGXs_GHi_AupSK-119" value="" style="endArrow=none;html=1;rounded=0;entryX=0;entryY=0.5;entryDx=0;entryDy=0;strokeColor=light-dark(#ff0000, #ededed);startArrow=classic;startFill=0;" edge="1" parent="3">
          <mxGeometry width="50" height="50" relative="1" as="geometry">
            <mxPoint y="284.82" as="sourcePoint" />
            <mxPoint x="55" y="284.82" as="targetPoint" />
          </mxGeometry>
        </mxCell>
        <mxCell id="5kKA1LQGXs_GHi_AupSK-124" value="&lt;font style=&quot;font-size: 8px;&quot;&gt;Response&lt;/font&gt;" style="edgeLabel;html=1;align=center;verticalAlign=middle;resizable=0;points=[];" vertex="1" connectable="0" parent="5kKA1LQGXs_GHi_AupSK-119">
          <mxGeometry x="-0.0312" y="1" relative="1" as="geometry">
            <mxPoint x="4" y="8" as="offset" />
          </mxGeometry>
        </mxCell>
        <mxCell id="5kKA1LQGXs_GHi_AupSK-120" value="" style="endArrow=none;html=1;rounded=0;entryX=0;entryY=0.5;entryDx=0;entryDy=0;strokeColor=light-dark(#ff0000, #ededed);startArrow=classic;startFill=0;" edge="1" parent="3">
          <mxGeometry width="50" height="50" relative="1" as="geometry">
            <mxPoint y="263" as="sourcePoint" />
            <mxPoint x="55" y="263" as="targetPoint" />
          </mxGeometry>
        </mxCell>
        <mxCell id="5kKA1LQGXs_GHi_AupSK-121" value="" style="endArrow=classic;html=1;rounded=0;entryX=0;entryY=0.5;entryDx=0;entryDy=0;strokeColor=light-dark(#ff0000, #ededed);startArrow=none;startFill=0;endFill=1;" edge="1" parent="3">
          <mxGeometry width="50" height="50" relative="1" as="geometry">
            <mxPoint y="239" as="sourcePoint" />
            <mxPoint x="55" y="239" as="targetPoint" />
          </mxGeometry>
        </mxCell>
        <mxCell id="5kKA1LQGXs_GHi_AupSK-122" value="" style="endArrow=classic;html=1;rounded=0;entryX=0;entryY=0.5;entryDx=0;entryDy=0;strokeColor=light-dark(#ff0000, #ededed);startArrow=none;startFill=0;endFill=1;" edge="1" parent="3">
          <mxGeometry width="50" height="50" relative="1" as="geometry">
            <mxPoint y="249.82" as="sourcePoint" />
            <mxPoint x="55" y="249.82" as="targetPoint" />
          </mxGeometry>
        </mxCell>
        <mxCell id="4" value="Factory ScriptPilot  (Service)" style="swimlane;whiteSpace=wrap" parent="1" vertex="1">
          <mxGeometry x="889" y="31" width="280" height="382" as="geometry">
            <mxRectangle x="920" y="20" width="140" height="30" as="alternateBounds" />
          </mxGeometry>
        </mxCell>
        <mxCell id="33" value="process&#xa;command" style="" parent="4" vertex="1">
          <mxGeometry x="85" y="248.5" width="110" height="50" as="geometry" />
        </mxCell>
        <mxCell id="38" value="" style="ellipse;shape=endState;fillColor=light-dark(#e4e74b, #ededed);strokeColor=#ff0000" parent="4" vertex="1">
          <mxGeometry x="125" y="343.5" width="30" height="30" as="geometry" />
        </mxCell>
        <mxCell id="39" value="" style="endArrow=open;strokeColor=#CC0066;endFill=1;rounded=0" parent="4" source="33" target="38" edge="1">
          <mxGeometry relative="1" as="geometry" />
        </mxCell>
        <mxCell id="5kKA1LQGXs_GHi_AupSK-65" value="" style="ellipse;shape=startState;fillColor=#000000;strokeColor=#ff0000;" vertex="1" parent="4">
          <mxGeometry x="125" y="28.5" width="30" height="30" as="geometry" />
        </mxCell>
        <mxCell id="5kKA1LQGXs_GHi_AupSK-66" value="" style="edgeStyle=elbowEdgeStyle;elbow=horizontal;verticalAlign=bottom;endArrow=open;endSize=8;strokeColor=#FF0000;endFill=1;rounded=0" edge="1" parent="4" target="5kKA1LQGXs_GHi_AupSK-67">
          <mxGeometry x="-684.5" y="-108" as="geometry">
            <mxPoint x="120" y="78.5" as="targetPoint" />
            <mxPoint x="140.5" y="58.5" as="sourcePoint" />
          </mxGeometry>
        </mxCell>
        <mxCell id="5kKA1LQGXs_GHi_AupSK-67" value="Start Service" style="" vertex="1" parent="4">
          <mxGeometry x="85" y="98.5" width="110" height="50" as="geometry" />
        </mxCell>
        <mxCell id="5kKA1LQGXs_GHi_AupSK-68" value="gRPC Server" style="" vertex="1" parent="4">
          <mxGeometry x="85" y="171.5" width="110" height="50" as="geometry" />
        </mxCell>
        <mxCell id="5kKA1LQGXs_GHi_AupSK-70" value="" style="endArrow=open;strokeColor=#CC0066;endFill=1;rounded=0;startArrow=none;startFill=0;exitX=0.5;exitY=1;exitDx=0;exitDy=0;entryX=0.5;entryY=0;entryDx=0;entryDy=0;" edge="1" parent="4" source="5kKA1LQGXs_GHi_AupSK-68" target="33">
          <mxGeometry relative="1" as="geometry">
            <mxPoint x="70.5" y="298.5" as="sourcePoint" />
            <mxPoint x="175.5" y="298.5" as="targetPoint" />
          </mxGeometry>
        </mxCell>
        <mxCell id="5kKA1LQGXs_GHi_AupSK-75" value="" style="edgeStyle=elbowEdgeStyle;elbow=horizontal;verticalAlign=bottom;endArrow=open;endSize=8;strokeColor=#FF0000;endFill=1;rounded=0;exitX=0.5;exitY=1;exitDx=0;exitDy=0;entryX=0.5;entryY=0;entryDx=0;entryDy=0;" edge="1" parent="4" source="5kKA1LQGXs_GHi_AupSK-67" target="5kKA1LQGXs_GHi_AupSK-68">
          <mxGeometry x="-1508.5" y="-236" as="geometry">
            <mxPoint x="140.25" y="198.5" as="targetPoint" />
            <mxPoint x="139.75" y="158.5" as="sourcePoint" />
          </mxGeometry>
        </mxCell>
        <mxCell id="5kKA1LQGXs_GHi_AupSK-69" value="" style="endArrow=open;strokeColor=light-dark(#902359, #ff96ee);endFill=1;rounded=0;startArrow=none;startFill=0;exitX=1;exitY=0.5;exitDx=0;exitDy=0;entryX=0;entryY=0.5;entryDx=0;entryDy=0;strokeWidth=2;" edge="1" parent="1" source="5kKA1LQGXs_GHi_AupSK-58" target="5kKA1LQGXs_GHi_AupSK-68">
          <mxGeometry relative="1" as="geometry">
            <mxPoint x="740" y="370" as="sourcePoint" />
            <mxPoint x="790" y="380" as="targetPoint" />
          </mxGeometry>
        </mxCell>
        <mxCell id="5kKA1LQGXs_GHi_AupSK-77" value="Factory ScriptPilot  (Service)" style="swimlane;whiteSpace=wrap" vertex="1" parent="1">
          <mxGeometry x="1210" y="300" width="280" height="382" as="geometry">
            <mxRectangle x="1190" y="300" width="140" height="30" as="alternateBounds" />
          </mxGeometry>
        </mxCell>
        <mxCell id="5kKA1LQGXs_GHi_AupSK-78" value="process&#xa;command" style="" vertex="1" parent="5kKA1LQGXs_GHi_AupSK-77">
          <mxGeometry x="85" y="248.5" width="110" height="50" as="geometry" />
        </mxCell>
        <mxCell id="5kKA1LQGXs_GHi_AupSK-79" value="" style="ellipse;shape=endState;fillColor=light-dark(#e4e74b, #ededed);strokeColor=#ff0000" vertex="1" parent="5kKA1LQGXs_GHi_AupSK-77">
          <mxGeometry x="125" y="343.5" width="30" height="30" as="geometry" />
        </mxCell>
        <mxCell id="5kKA1LQGXs_GHi_AupSK-80" value="" style="endArrow=open;strokeColor=#CC0066;endFill=1;rounded=0" edge="1" parent="5kKA1LQGXs_GHi_AupSK-77" source="5kKA1LQGXs_GHi_AupSK-78" target="5kKA1LQGXs_GHi_AupSK-79">
          <mxGeometry relative="1" as="geometry" />
        </mxCell>
        <mxCell id="5kKA1LQGXs_GHi_AupSK-81" value="" style="ellipse;shape=startState;fillColor=#000000;strokeColor=#ff0000;" vertex="1" parent="5kKA1LQGXs_GHi_AupSK-77">
          <mxGeometry x="125" y="28.5" width="30" height="30" as="geometry" />
        </mxCell>
        <mxCell id="5kKA1LQGXs_GHi_AupSK-82" value="" style="edgeStyle=elbowEdgeStyle;elbow=horizontal;verticalAlign=bottom;endArrow=open;endSize=8;strokeColor=#FF0000;endFill=1;rounded=0" edge="1" parent="5kKA1LQGXs_GHi_AupSK-77" target="5kKA1LQGXs_GHi_AupSK-83">
          <mxGeometry x="-684.5" y="-108" as="geometry">
            <mxPoint x="120" y="78.5" as="targetPoint" />
            <mxPoint x="140.5" y="58.5" as="sourcePoint" />
          </mxGeometry>
        </mxCell>
        <mxCell id="5kKA1LQGXs_GHi_AupSK-83" value="Start Service" style="" vertex="1" parent="5kKA1LQGXs_GHi_AupSK-77">
          <mxGeometry x="85" y="98.5" width="110" height="50" as="geometry" />
        </mxCell>
        <mxCell id="5kKA1LQGXs_GHi_AupSK-84" value="gRPC Server" style="" vertex="1" parent="5kKA1LQGXs_GHi_AupSK-77">
          <mxGeometry x="85" y="171.5" width="110" height="50" as="geometry" />
        </mxCell>
        <mxCell id="5kKA1LQGXs_GHi_AupSK-85" value="" style="endArrow=open;strokeColor=#CC0066;endFill=1;rounded=0;startArrow=none;startFill=0;exitX=0.5;exitY=1;exitDx=0;exitDy=0;entryX=0.5;entryY=0;entryDx=0;entryDy=0;" edge="1" parent="5kKA1LQGXs_GHi_AupSK-77" source="5kKA1LQGXs_GHi_AupSK-84" target="5kKA1LQGXs_GHi_AupSK-78">
          <mxGeometry relative="1" as="geometry">
            <mxPoint x="70.5" y="298.5" as="sourcePoint" />
            <mxPoint x="175.5" y="298.5" as="targetPoint" />
          </mxGeometry>
        </mxCell>
        <mxCell id="5kKA1LQGXs_GHi_AupSK-86" value="" style="edgeStyle=elbowEdgeStyle;elbow=horizontal;verticalAlign=bottom;endArrow=open;endSize=8;strokeColor=#FF0000;endFill=1;rounded=0;exitX=0.5;exitY=1;exitDx=0;exitDy=0;entryX=0.5;entryY=0;entryDx=0;entryDy=0;" edge="1" parent="5kKA1LQGXs_GHi_AupSK-77" source="5kKA1LQGXs_GHi_AupSK-83" target="5kKA1LQGXs_GHi_AupSK-84">
          <mxGeometry x="-1508.5" y="-236" as="geometry">
            <mxPoint x="140.25" y="198.5" as="targetPoint" />
            <mxPoint x="139.75" y="158.5" as="sourcePoint" />
          </mxGeometry>
        </mxCell>
        <mxCell id="5kKA1LQGXs_GHi_AupSK-87" value="Factory ScriptPilot  (Service)" style="swimlane;whiteSpace=wrap" vertex="1" parent="1">
          <mxGeometry x="889" y="910" width="280" height="382" as="geometry">
            <mxRectangle x="889" y="910" width="140" height="30" as="alternateBounds" />
          </mxGeometry>
        </mxCell>
        <mxCell id="5kKA1LQGXs_GHi_AupSK-88" value="process&#xa;command" style="" vertex="1" parent="5kKA1LQGXs_GHi_AupSK-87">
          <mxGeometry x="85" y="248.5" width="110" height="50" as="geometry" />
        </mxCell>
        <mxCell id="5kKA1LQGXs_GHi_AupSK-89" value="" style="ellipse;shape=endState;fillColor=light-dark(#e4e74b, #ededed);strokeColor=#ff0000" vertex="1" parent="5kKA1LQGXs_GHi_AupSK-87">
          <mxGeometry x="125" y="343.5" width="30" height="30" as="geometry" />
        </mxCell>
        <mxCell id="5kKA1LQGXs_GHi_AupSK-90" value="" style="endArrow=open;strokeColor=#CC0066;endFill=1;rounded=0" edge="1" parent="5kKA1LQGXs_GHi_AupSK-87" source="5kKA1LQGXs_GHi_AupSK-88" target="5kKA1LQGXs_GHi_AupSK-89">
          <mxGeometry relative="1" as="geometry" />
        </mxCell>
        <mxCell id="5kKA1LQGXs_GHi_AupSK-91" value="" style="ellipse;shape=startState;fillColor=#000000;strokeColor=#ff0000;" vertex="1" parent="5kKA1LQGXs_GHi_AupSK-87">
          <mxGeometry x="125" y="28.5" width="30" height="30" as="geometry" />
        </mxCell>
        <mxCell id="5kKA1LQGXs_GHi_AupSK-92" value="" style="edgeStyle=elbowEdgeStyle;elbow=horizontal;verticalAlign=bottom;endArrow=open;endSize=8;strokeColor=#FF0000;endFill=1;rounded=0" edge="1" parent="5kKA1LQGXs_GHi_AupSK-87" target="5kKA1LQGXs_GHi_AupSK-93">
          <mxGeometry x="-684.5" y="-108" as="geometry">
            <mxPoint x="120" y="78.5" as="targetPoint" />
            <mxPoint x="140.5" y="58.5" as="sourcePoint" />
          </mxGeometry>
        </mxCell>
        <mxCell id="5kKA1LQGXs_GHi_AupSK-93" value="Start Service" style="" vertex="1" parent="5kKA1LQGXs_GHi_AupSK-87">
          <mxGeometry x="85" y="98.5" width="110" height="50" as="geometry" />
        </mxCell>
        <mxCell id="5kKA1LQGXs_GHi_AupSK-94" value="gRPC Server" style="" vertex="1" parent="5kKA1LQGXs_GHi_AupSK-87">
          <mxGeometry x="85" y="171.5" width="110" height="50" as="geometry" />
        </mxCell>
        <mxCell id="5kKA1LQGXs_GHi_AupSK-95" value="" style="endArrow=open;strokeColor=#CC0066;endFill=1;rounded=0;startArrow=none;startFill=0;exitX=0.5;exitY=1;exitDx=0;exitDy=0;entryX=0.5;entryY=0;entryDx=0;entryDy=0;" edge="1" parent="5kKA1LQGXs_GHi_AupSK-87" source="5kKA1LQGXs_GHi_AupSK-94" target="5kKA1LQGXs_GHi_AupSK-88">
          <mxGeometry relative="1" as="geometry">
            <mxPoint x="70.5" y="298.5" as="sourcePoint" />
            <mxPoint x="175.5" y="298.5" as="targetPoint" />
          </mxGeometry>
        </mxCell>
        <mxCell id="5kKA1LQGXs_GHi_AupSK-96" value="" style="edgeStyle=elbowEdgeStyle;elbow=horizontal;verticalAlign=bottom;endArrow=open;endSize=8;strokeColor=#FF0000;endFill=1;rounded=0;exitX=0.5;exitY=1;exitDx=0;exitDy=0;entryX=0.5;entryY=0;entryDx=0;entryDy=0;" edge="1" parent="5kKA1LQGXs_GHi_AupSK-87" source="5kKA1LQGXs_GHi_AupSK-93" target="5kKA1LQGXs_GHi_AupSK-94">
          <mxGeometry x="-1508.5" y="-236" as="geometry">
            <mxPoint x="140.25" y="198.5" as="targetPoint" />
            <mxPoint x="139.75" y="158.5" as="sourcePoint" />
          </mxGeometry>
        </mxCell>
        <mxCell id="5kKA1LQGXs_GHi_AupSK-97" value="Factory ScriptPilot  (Service)" style="swimlane;whiteSpace=wrap;startSize=23;" vertex="1" parent="1">
          <mxGeometry x="1190" y="710" width="280" height="382" as="geometry">
            <mxRectangle x="1190" y="710" width="140" height="30" as="alternateBounds" />
          </mxGeometry>
        </mxCell>
        <mxCell id="5kKA1LQGXs_GHi_AupSK-98" value="process&#xa;command" style="" vertex="1" parent="5kKA1LQGXs_GHi_AupSK-97">
          <mxGeometry x="85" y="248.5" width="110" height="50" as="geometry" />
        </mxCell>
        <mxCell id="5kKA1LQGXs_GHi_AupSK-99" value="" style="ellipse;shape=endState;fillColor=light-dark(#e4e74b, #ededed);strokeColor=#ff0000" vertex="1" parent="5kKA1LQGXs_GHi_AupSK-97">
          <mxGeometry x="125" y="343.5" width="30" height="30" as="geometry" />
        </mxCell>
        <mxCell id="5kKA1LQGXs_GHi_AupSK-100" value="" style="endArrow=open;strokeColor=#CC0066;endFill=1;rounded=0" edge="1" parent="5kKA1LQGXs_GHi_AupSK-97" source="5kKA1LQGXs_GHi_AupSK-98" target="5kKA1LQGXs_GHi_AupSK-99">
          <mxGeometry relative="1" as="geometry" />
        </mxCell>
        <mxCell id="5kKA1LQGXs_GHi_AupSK-101" value="" style="ellipse;shape=startState;fillColor=#000000;strokeColor=#ff0000;" vertex="1" parent="5kKA1LQGXs_GHi_AupSK-97">
          <mxGeometry x="125" y="28.5" width="30" height="30" as="geometry" />
        </mxCell>
        <mxCell id="5kKA1LQGXs_GHi_AupSK-102" value="" style="edgeStyle=elbowEdgeStyle;elbow=horizontal;verticalAlign=bottom;endArrow=open;endSize=8;strokeColor=#FF0000;endFill=1;rounded=0" edge="1" parent="5kKA1LQGXs_GHi_AupSK-97" target="5kKA1LQGXs_GHi_AupSK-103">
          <mxGeometry x="-684.5" y="-108" as="geometry">
            <mxPoint x="120" y="78.5" as="targetPoint" />
            <mxPoint x="140.5" y="58.5" as="sourcePoint" />
          </mxGeometry>
        </mxCell>
        <mxCell id="5kKA1LQGXs_GHi_AupSK-103" value="Start Service" style="" vertex="1" parent="5kKA1LQGXs_GHi_AupSK-97">
          <mxGeometry x="85" y="98.5" width="110" height="50" as="geometry" />
        </mxCell>
        <mxCell id="5kKA1LQGXs_GHi_AupSK-104" value="gRPC Server" style="" vertex="1" parent="5kKA1LQGXs_GHi_AupSK-97">
          <mxGeometry x="85" y="171.5" width="110" height="50" as="geometry" />
        </mxCell>
        <mxCell id="5kKA1LQGXs_GHi_AupSK-105" value="" style="endArrow=open;strokeColor=#CC0066;endFill=1;rounded=0;startArrow=none;startFill=0;exitX=0.5;exitY=1;exitDx=0;exitDy=0;entryX=0.5;entryY=0;entryDx=0;entryDy=0;" edge="1" parent="5kKA1LQGXs_GHi_AupSK-97" source="5kKA1LQGXs_GHi_AupSK-104" target="5kKA1LQGXs_GHi_AupSK-98">
          <mxGeometry relative="1" as="geometry">
            <mxPoint x="70.5" y="298.5" as="sourcePoint" />
            <mxPoint x="175.5" y="298.5" as="targetPoint" />
          </mxGeometry>
        </mxCell>
        <mxCell id="5kKA1LQGXs_GHi_AupSK-106" value="" style="edgeStyle=elbowEdgeStyle;elbow=horizontal;verticalAlign=bottom;endArrow=open;endSize=8;strokeColor=#FF0000;endFill=1;rounded=0;exitX=0.5;exitY=1;exitDx=0;exitDy=0;entryX=0.5;entryY=0;entryDx=0;entryDy=0;" edge="1" parent="5kKA1LQGXs_GHi_AupSK-97" source="5kKA1LQGXs_GHi_AupSK-103" target="5kKA1LQGXs_GHi_AupSK-104">
          <mxGeometry x="-1508.5" y="-236" as="geometry">
            <mxPoint x="140.25" y="198.5" as="targetPoint" />
            <mxPoint x="139.75" y="158.5" as="sourcePoint" />
          </mxGeometry>
        </mxCell>
        <mxCell id="5kKA1LQGXs_GHi_AupSK-108" value="" style="endArrow=open;strokeColor=light-dark(#902359, #ff96ee);endFill=1;rounded=0;startArrow=none;startFill=0;exitX=1;exitY=0.5;exitDx=0;exitDy=0;entryX=0;entryY=0.5;entryDx=0;entryDy=0;strokeWidth=2;" edge="1" parent="1" source="5kKA1LQGXs_GHi_AupSK-58" target="5kKA1LQGXs_GHi_AupSK-84">
          <mxGeometry relative="1" as="geometry">
            <mxPoint x="731" y="445" as="sourcePoint" />
            <mxPoint x="1000" y="310" as="targetPoint" />
          </mxGeometry>
        </mxCell>
        <mxCell id="5kKA1LQGXs_GHi_AupSK-109" value="" style="endArrow=open;strokeColor=light-dark(#902359, #ff96ee);endFill=1;rounded=0;startArrow=none;startFill=0;exitX=1;exitY=0.5;exitDx=0;exitDy=0;entryX=0;entryY=0.5;entryDx=0;entryDy=0;strokeWidth=2;" edge="1" parent="1" source="5kKA1LQGXs_GHi_AupSK-58" target="5kKA1LQGXs_GHi_AupSK-104">
          <mxGeometry relative="1" as="geometry">
            <mxPoint x="730" y="445" as="sourcePoint" />
            <mxPoint x="1140" y="710" as="targetPoint" />
          </mxGeometry>
        </mxCell>
        <mxCell id="5kKA1LQGXs_GHi_AupSK-110" value="" style="endArrow=open;strokeColor=light-dark(#902359, #ff96ee);endFill=1;rounded=0;startArrow=none;startFill=0;exitX=1;exitY=0.5;exitDx=0;exitDy=0;entryX=0;entryY=0.5;entryDx=0;entryDy=0;strokeWidth=2;" edge="1" parent="1" source="5kKA1LQGXs_GHi_AupSK-58" target="5kKA1LQGXs_GHi_AupSK-94">
          <mxGeometry relative="1" as="geometry">
            <mxPoint x="700" y="470" as="sourcePoint" />
            <mxPoint x="1265" y="942" as="targetPoint" />
          </mxGeometry>
        </mxCell>
      </root>
    </mxGraphModel>
  </diagram>
</mxfile>
